<?xml version="1.0" encoding="UTF-8" standalone="no"?><!-- Generator: Gravit.io --><svg xmlns="http://www.w3.org/2000/svg" xmlns:xlink="http://www.w3.org/1999/xlink" style="isolation:isolate" viewBox="0 0 110 110" width="110pt" height="110pt"><defs><clipPath id="_clipPath_pE4IjKjp056BcC2K44LSmfyITfFmGO1f"><rect width="110" height="110"/></clipPath></defs><g clip-path="url(#_clipPath_pE4IjKjp056BcC2K44LSmfyITfFmGO1f)"><path d=" M 1.545 55.5 C 1.545 26.004 25.666 2.056 55.375 2.056 C 85.084 2.056 109.205 26.004 109.205 55.5 C 109.205 84.996 85.084 108.944 55.375 108.944 C 25.666 108.944 1.545 84.996 1.545 55.5 Z  M 5.647 55.5 C 5.647 28.251 27.929 6.128 55.375 6.128 C 82.821 6.128 105.103 28.251 105.103 55.5 C 105.103 82.749 82.821 104.872 55.375 104.872 C 27.929 104.872 5.647 82.749 5.647 55.5 Z " fill-rule="evenodd" fill="rgb(131,38,239)"/><path d=" M 20.763 86.877 C 20.728 83.582 34.98 80.755 52.569 80.568 C 70.157 80.381 84.466 82.904 84.501 86.199 C 84.536 89.494 70.285 92.321 52.696 92.508 C 35.107 92.696 20.799 90.172 20.763 86.877 Z " fill="rgb(189,187,188)" vector-effect="non-scaling-stroke" stroke-width="1" stroke="rgb(189,187,188)" stroke-linejoin="miter" stroke-linecap="butt" stroke-miterlimit="3"/><path d=" M 43.047 84.665 C 43.16 83.262 43.107 81.787 42.897 80.262 C 44.352 79.517 45.526 78.757 46.297 78.016 C 46.363 78.446 46.398 78.858 46.424 79.286 C 45.997 81.172 44.798 83.033 43.047 84.665 Z " fill="rgb(131,38,239)"/><path d=" M 38.956 92.47 C 38.576 92.667 38.188 92.841 37.801 93.014 C 38.04 91.972 38.073 90.565 37.98 88.942 C 39.395 88.339 40.688 87.626 41.833 86.808 C 41.325 89.164 40.353 91.134 38.956 92.47 Z " fill="rgb(131,38,239)"/><path d=" M 30.923 92.865 C 30.228 92.527 29.556 92.101 28.874 91.57 C 28.501 91.269 28.119 90.944 27.746 90.602 C 29.16 90.61 30.646 90.472 32.114 90.166 C 32.22 90.358 32.335 90.533 32.449 90.709 C 33.203 91.914 33.905 92.814 34.547 93.426 C 34.122 93.519 33.697 93.572 33.271 93.625 C 32.506 93.514 31.715 93.249 30.923 92.865 L 30.923 92.865 Z " fill="rgb(131,38,239)"/><path d=" M 19.908 86.638 C 19.711 86.257 19.513 85.877 19.349 85.474 C 20.217 85.655 21.356 85.723 22.776 85.659 C 22.986 85.654 23.204 85.633 23.414 85.628 C 24.01 87.019 24.723 88.312 25.533 89.472 C 25.039 89.358 24.562 89.253 24.095 89.092 C 23.272 88.832 22.524 88.512 21.867 88.14 C 21.116 87.714 20.45 87.213 19.908 86.638 L 19.908 86.638 Z " fill="rgb(131,38,239)"/><path d=" M 20.748 76.828 C 21.049 76.455 21.374 76.073 21.716 75.7 C 21.708 77.115 21.846 78.6 22.152 80.068 C 21.96 80.174 21.785 80.289 21.609 80.404 C 20.404 81.157 19.504 81.859 18.892 82.501 C 18.799 82.076 18.738 81.667 18.685 81.241 C 18.925 79.8 19.615 78.296 20.748 76.828 L 20.748 76.828 Z " fill="rgb(131,38,239)"/><path d=" M 23.262 71.784 C 23.828 70.018 24.674 68.597 25.741 67.59 C 26.121 67.392 26.493 67.21 26.896 67.046 C 26.714 67.914 26.647 69.053 26.71 70.473 C 26.715 70.683 26.736 70.901 26.741 71.111 C 25.35 71.707 24.058 72.421 22.897 73.23 C 22.98 72.719 23.101 72.25 23.262 71.784 Z " fill="rgb(131,38,239)"/><path d=" M 29.205 66.288 C 29.739 66.694 30.505 67.603 31.452 69.359 C 31.504 69.45 31.556 69.541 31.598 69.648 C 30.932 69.766 30.264 69.925 29.587 70.099 C 28.925 70.282 28.262 70.505 27.63 70.746 C 27.627 70.642 27.624 70.537 27.606 70.423 C 27.516 68.43 27.706 67.257 27.955 66.634 C 28.16 66.564 28.356 66.51 28.577 66.449 C 28.797 66.388 28.993 66.334 29.205 66.288 L 29.205 66.288 Z " fill="rgb(131,38,239)"/><path d=" M 45.929 76.258 C 45.984 76.454 46.045 76.675 46.09 76.886 C 45.684 77.421 44.775 78.186 43.02 79.134 C 42.928 79.185 42.837 79.237 42.73 79.28 C 42.612 78.614 42.453 77.945 42.279 77.268 C 42.096 76.607 41.873 75.943 41.632 75.311 C 41.737 75.308 41.841 75.306 41.955 75.288 C 43.948 75.198 45.121 75.387 45.744 75.637 C 45.805 75.857 45.875 76.062 45.929 76.258 L 45.929 76.258 Z " fill="rgb(131,38,239)"/><path d=" M 41.373 77.519 C 41.576 78.254 41.739 78.987 41.862 79.718 C 40.385 80.43 38.691 81.123 36.823 81.759 C 36.605 80.83 36.372 79.892 36.114 78.961 C 35.857 78.03 35.575 77.106 35.284 76.198 C 37.213 75.782 39.038 75.515 40.656 75.357 C 40.932 76.072 41.169 76.784 41.373 77.519 L 41.373 77.519 Z " fill="rgb(131,38,239)"/><path d=" M 35.224 79.221 C 35.488 80.176 35.728 81.139 35.945 82.067 C 35.015 82.374 34.078 82.655 33.133 82.912 C 32.177 83.176 31.215 83.416 30.286 83.634 C 29.98 82.704 29.698 81.766 29.442 80.821 C 29.178 79.866 28.938 78.903 28.72 77.974 C 29.65 77.668 30.588 77.387 31.533 77.13 C 32.488 76.866 33.45 76.626 34.379 76.408 C 34.686 77.326 34.959 78.266 35.224 79.221 Z " fill="rgb(131,38,239)"/><path d=" M 37.075 89.628 C 37.165 91.62 36.975 92.794 36.726 93.417 C 36.521 93.487 36.325 93.541 36.104 93.602 C 35.908 93.656 35.688 93.717 35.476 93.763 C 34.942 93.357 34.176 92.448 33.229 90.692 C 33.177 90.601 33.125 90.51 33.083 90.403 C 33.749 90.284 34.417 90.126 35.094 89.952 C 35.756 89.769 36.419 89.545 37.051 89.305 C 37.054 89.409 37.072 89.523 37.075 89.628 L 37.075 89.628 Z " fill="rgb(131,38,239)"/><path d=" M 34.843 89.045 C 34.108 89.249 33.376 89.412 32.645 89.535 C 31.932 88.057 31.24 86.363 30.604 84.495 C 31.524 84.293 32.446 84.051 33.401 83.787 C 34.332 83.529 35.256 83.247 36.165 82.956 C 36.58 84.885 36.848 86.71 37.005 88.328 C 36.306 88.614 35.594 88.851 34.843 89.045 L 34.843 89.045 Z " fill="rgb(131,38,239)"/><path d=" M 18.761 83.777 C 18.706 83.581 18.645 83.361 18.6 83.149 C 19.006 82.615 19.915 81.849 21.67 80.901 C 21.762 80.85 21.853 80.798 21.96 80.755 C 22.078 81.421 22.237 82.09 22.411 82.767 C 22.594 83.428 22.817 84.092 23.058 84.724 C 22.953 84.727 22.848 84.729 22.735 84.748 C 20.742 84.838 19.569 84.648 18.946 84.398 C 18.892 84.202 18.822 83.998 18.761 83.777 L 18.761 83.777 Z " fill="rgb(131,38,239)"/><path d=" M 23.317 82.516 C 23.114 81.781 22.951 81.048 22.828 80.317 C 24.305 79.605 25.999 78.912 27.867 78.276 C 28.069 79.196 28.311 80.118 28.576 81.074 C 28.84 82.029 29.115 82.929 29.406 83.838 C 27.477 84.253 25.652 84.52 24.034 84.678 C 23.757 83.963 23.521 83.251 23.317 82.516 L 23.317 82.516 Z " fill="rgb(131,38,239)"/><path d=" M 31.304 76.257 C 30.373 76.515 29.449 76.797 28.541 77.088 C 28.125 75.159 27.858 73.334 27.7 71.716 C 29.1 71.168 30.554 70.766 32.036 70.516 C 32.749 71.993 33.442 73.687 34.077 75.556 C 33.157 75.757 32.22 75.991 31.304 76.257 L 31.304 76.257 Z " fill="rgb(131,38,239)"/><path d=" M 26.812 72.08 C 26.97 73.698 27.255 75.492 27.657 77.372 C 25.838 77.994 24.152 78.672 22.684 79.368 C 22.472 77.699 22.459 76.081 22.652 74.537 C 23.877 73.578 25.281 72.741 26.812 72.08 Z " fill="rgb(131,38,239)"/><path d=" M 24.399 85.566 C 26.017 85.409 27.81 85.123 29.691 84.722 C 30.313 86.541 30.99 88.226 31.687 89.695 C 30.018 89.906 28.399 89.919 26.856 89.726 C 25.897 88.501 25.069 87.082 24.399 85.566 Z " fill="rgb(131,38,239)"/><path d=" M 37.885 87.979 C 37.72 86.337 37.435 84.543 37.024 82.679 C 38.819 82.063 40.52 81.395 42.013 80.692 C 42.216 82.376 42.22 84.01 42.045 85.523 C 40.838 86.45 39.434 87.287 37.885 87.979 Z " fill="rgb(131,38,239)"/><path d=" M 45.332 74.577 C 44.29 74.338 42.883 74.305 41.261 74.398 C 40.658 72.983 39.944 71.69 39.126 70.545 C 41.475 71.029 43.437 72.016 44.782 73.398 C 44.979 73.778 45.168 74.174 45.332 74.577 Z " fill="rgb(131,38,239)"/><path d=" M 40.298 74.493 C 38.655 74.658 36.862 74.943 34.997 75.354 C 34.382 73.559 33.713 71.858 33.01 70.365 C 34.695 70.163 36.329 70.159 37.841 70.334 C 38.777 71.525 39.614 72.929 40.298 74.493 Z " fill="rgb(131,38,239)"/><path d=" M 32.581 69.482 C 31.851 68.035 31.075 66.852 30.334 66.081 C 30.764 66.015 31.201 65.973 31.62 65.963 C 33.49 66.381 35.352 67.581 36.975 69.347 C 35.581 69.218 34.105 69.271 32.581 69.482 L 32.581 69.482 Z " fill="rgb(131,38,239)"/><path d=" M 22.367 71.504 C 22.115 72.312 21.918 73.171 21.776 74.041 C 21.087 74.601 20.452 75.212 19.904 75.852 C 19.313 76.529 18.81 77.236 18.395 77.931 C 18.643 76.253 19.203 74.608 20.072 73.075 C 20.94 71.543 22.054 70.232 23.374 69.141 C 22.991 69.854 22.644 70.649 22.367 71.504 Z " fill="rgb(131,38,239)"/><path d=" M 21.484 88.997 C 22.188 89.396 22.968 89.734 23.831 89.996 C 24.639 90.247 25.498 90.445 26.368 90.586 C 26.928 91.275 27.539 91.911 28.179 92.459 C 28.857 93.049 29.547 93.544 30.242 93.958 C 26.817 93.425 23.703 91.661 21.484 88.997 L 21.484 88.997 Z " fill="rgb(131,38,239)"/><path d=" M 41.273 90.932 C 42.071 89.524 42.624 87.855 42.898 85.985 C 44.336 84.796 45.508 83.456 46.305 82.049 C 46.064 83.751 45.495 85.412 44.618 86.96 C 43.741 88.508 42.594 89.841 41.273 90.932 Z " fill="rgb(131,38,239)"/><path d=" M 90.832 50.078 C 91.436 46.537 90.079 46.691 87.169 47.33 C 84.054 48.006 79.801 48.951 81.189 40.808 C 81.347 39.879 82.224 38.701 83.122 38.209 C 83.569 37.948 83.969 37.878 84.23 38.016 C 84.491 38.153 84.591 38.486 84.508 38.938 C 83.572 44.425 85.547 44.259 88.823 43.571 C 91.484 42.994 95.159 42.179 94.107 48.232 C 92.635 56.861 83.344 64.751 78.88 68.093 C 78.992 67.669 79.06 67.271 79.154 66.838 C 79.282 66.086 79.341 65.393 79.348 64.77 C 85.944 59.754 90.059 54.493 90.832 50.078 L 90.832 50.078 Z " fill="rgb(131,38,239)"/><path d=" M 77.923 66.941 C 78.153 69.273 76.63 71.881 74.195 73.323 C 74.733 71.509 74.913 69.719 74.752 67.983 C 74.578 66.239 74.062 64.676 73.195 63.331 C 75.755 63.133 77.692 64.612 77.923 66.941 L 77.923 66.941 Z " fill="rgb(131,38,239)"/><path d=" M 72.477 63.062 C 72.5 63.054 72.537 63.053 72.56 63.045 C 73.486 64.358 74.059 65.924 74.241 67.642 C 74.429 69.359 74.224 71.19 73.636 73.02 C 73.613 73.029 73.579 73.051 73.555 73.059 L 62.851 77.418 C 63.58 75.333 63.854 73.233 63.653 71.269 C 63.583 70.622 63.464 69.97 63.276 69.364 C 63.243 69.286 63.2 69.223 63.135 69.189 C 63.032 69.135 62.886 69.14 62.757 69.195 C 62.537 69.304 62.382 69.569 62.44 69.762 C 63.15 72.214 62.95 75.037 61.868 77.82 L 57.797 79.479 C 58.635 77.27 58.954 75.032 58.729 72.95 C 58.648 72.196 58.493 71.444 58.271 70.738 C 58.238 70.66 58.194 70.597 58.13 70.563 C 58.026 70.509 57.88 70.514 57.741 70.584 C 57.51 70.708 57.379 70.964 57.436 71.157 C 57.651 71.818 57.795 72.512 57.868 73.233 C 58.099 75.354 57.723 77.645 56.778 79.882 L 52.707 81.54 C 53.665 79.214 54.032 76.843 53.792 74.624 C 53.697 73.741 53.51 72.911 53.228 72.114 C 53.209 72.042 53.154 71.994 53.09 71.96 C 52.986 71.906 52.827 71.904 52.701 71.981 C 52.47 72.104 52.339 72.361 52.41 72.561 C 53.415 75.354 53.157 78.706 51.688 81.944 L 47.113 83.807 C 48.146 81.377 48.559 78.868 48.314 76.483 C 48.063 74.148 47.149 72.08 45.664 70.485 L 72.477 63.062 Z " fill="rgb(131,38,239)"/><path d=" M 43.235 71.096 C 41.843 70.307 40.164 69.77 38.32 69.489 C 37.13 68.051 35.806 66.888 34.414 66.099 C 37.865 66.608 41.024 68.398 43.235 71.096 Z " fill="rgb(131,38,239)"/><g><path d=" M 56.724 43.189 C 53.567 43.649 57.058 47.805 55.318 42.707 C 58.203 40.269 59.791 46.77 57.55 42.836 C 56.533 41.036 58.715 43.731 56.847 42.595 C 56.281 42.25 57.158 42.435 56.558 42.178 L 55.608 43.124 L 46.45 18.549 L 50.062 18.025 L 60.98 40.833 C 63.182 46.104 59.861 43.307 56.6 43.782 L 56.724 43.189 Z " fill="rgb(41,213,226)"/><path d=" M 56.724 43.189 C 53.567 43.649 57.058 47.805 55.318 42.707 C 58.203 40.269 59.791 46.77 57.55 42.836 C 56.533 41.036 58.715 43.731 56.847 42.595 C 56.281 42.25 57.158 42.435 56.558 42.178 L 55.608 43.124 L 46.45 18.549 L 50.062 18.025 L 60.98 40.833 C 63.182 46.104 59.861 43.307 56.6 43.782 L 56.724 43.189 Z " fill="rgb(41,213,226)"/><g style="isolation: isolate;"><path d=" M 56.724 43.189 C 53.567 43.649 57.058 47.805 55.318 42.707 C 58.203 40.269 59.791 46.77 57.55 42.836 C 56.533 41.036 58.715 43.731 56.847 42.595 C 56.281 42.25 57.158 42.435 56.558 42.178 L 55.608 43.124 L 46.45 18.549 L 50.062 18.025 L 60.98 40.833 C 63.182 46.104 59.861 43.307 56.6 43.782 L 56.724 43.189 Z " fill="none" vector-effect="non-scaling-stroke" stroke-width="0.18" stroke="rgb(41,213,226)" stroke-linejoin="miter" stroke-linecap="butt" stroke-miterlimit="4"/></g><path d=" M 53.176 43.332 C 50.001 43.639 53.285 47.96 51.796 42.782 C 54.795 40.488 56.066 47.058 54.019 43.02 C 53.091 41.173 55.139 43.971 53.329 42.745 C 52.78 42.374 53.647 42.601 53.06 42.315 L 52.065 43.213 L 44.113 18.222 L 47.746 17.874 L 57.542 41.186 C 59.485 46.559 56.304 43.603 53.024 43.919 L 53.176 43.332 Z " fill="rgb(41,213,226)"/><path d=" M 53.176 43.332 C 50.001 43.639 53.285 47.96 51.796 42.782 C 54.795 40.488 56.066 47.058 54.019 43.02 C 53.091 41.173 55.139 43.971 53.329 42.745 C 52.78 42.374 53.647 42.601 53.06 42.315 L 52.065 43.213 L 44.113 18.222 L 47.746 17.874 L 57.542 41.186 C 59.485 46.559 56.304 43.603 53.024 43.919 L 53.176 43.332 Z " fill="rgb(18,190,202)"/><g style="isolation: isolate;"><path d=" M 53.176 43.332 C 50.001 43.639 53.285 47.96 51.796 42.782 C 54.795 40.488 56.066 47.058 54.019 43.02 C 53.091 41.173 55.139 43.971 53.329 42.745 C 52.78 42.374 53.647 42.601 53.06 42.315 L 52.065 43.213 L 44.113 18.222 L 47.746 17.874 L 57.542 41.186 C 59.485 46.559 56.304 43.603 53.024 43.919 L 53.176 43.332 Z " fill="none" vector-effect="non-scaling-stroke" stroke-width="0.18" stroke="rgb(41,213,226)" stroke-linejoin="miter" stroke-linecap="butt" stroke-miterlimit="4"/></g><path d=" M 51.388 17.598 L 44.087 20.615 C 44.014 20.657 43.931 20.678 43.847 20.699 C 43.825 20.708 43.802 20.717 43.764 20.72 C 43.702 20.732 43.658 20.75 43.596 20.762 C 43.558 20.765 43.535 20.774 43.496 20.777 C 43.458 20.779 43.396 20.791 43.357 20.794 C 43.319 20.797 43.28 20.8 43.257 20.809 C 43.218 20.812 43.163 20.808 43.124 20.811 C 43.085 20.814 43.052 20.801 43.013 20.804 C 42.974 20.807 42.919 20.804 42.88 20.807 C 42.841 20.809 42.808 20.797 42.769 20.8 C 42.73 20.803 42.681 20.784 42.642 20.787 C 42.609 20.774 42.57 20.777 42.537 20.765 C 42.503 20.752 42.448 20.749 42.415 20.736 L 41.984 20.574 C 41.951 20.561 41.907 20.527 41.874 20.515 C 41.841 20.502 41.814 20.475 41.781 20.462 C 41.748 20.45 41.704 20.416 41.676 20.388 C 41.649 20.36 41.616 20.348 41.589 20.32 C 41.561 20.292 41.517 20.258 41.484 20.245 C 41.457 20.218 41.424 20.205 41.396 20.177 C 41.369 20.15 41.325 20.116 41.298 20.088 L 41.216 20.004 C 41.188 19.977 41.15 19.927 41.123 19.9 C 41.096 19.872 41.085 19.85 41.057 19.822 C 41.036 19.779 40.992 19.745 40.97 19.702 C 40.96 19.681 40.932 19.653 40.921 19.631 C 40.889 19.567 40.84 19.496 40.808 19.431 C 40.808 19.431 40.791 19.425 40.797 19.41 L 40.414 18.671 C 39.809 17.477 40.321 16.098 41.557 15.588 L 48.858 12.572 C 48.931 12.529 49.014 12.508 49.098 12.487 C 49.12 12.478 49.159 12.475 49.181 12.466 C 49.226 12.448 49.287 12.436 49.349 12.424 C 49.387 12.421 49.41 12.412 49.449 12.41 C 49.488 12.407 49.549 12.395 49.588 12.392 C 49.626 12.389 49.665 12.386 49.688 12.377 C 49.727 12.374 49.782 12.378 49.821 12.375 C 49.86 12.372 49.893 12.385 49.932 12.382 C 49.971 12.379 50.026 12.382 50.065 12.38 C 50.104 12.377 50.137 12.389 50.176 12.386 C 50.215 12.384 50.264 12.402 50.303 12.4 C 50.336 12.412 50.375 12.409 50.408 12.422 C 50.442 12.434 50.497 12.438 50.53 12.45 L 50.961 12.612 C 50.994 12.625 51.038 12.659 51.071 12.671 C 51.104 12.684 51.131 12.712 51.164 12.724 C 51.197 12.737 51.241 12.771 51.269 12.798 C 51.296 12.826 51.329 12.839 51.356 12.866 C 51.384 12.894 51.428 12.928 51.461 12.941 C 51.488 12.968 51.521 12.981 51.549 13.009 C 51.576 13.037 51.62 13.071 51.647 13.098 L 51.729 13.182 C 51.757 13.209 51.795 13.259 51.822 13.287 C 51.849 13.314 51.86 13.336 51.888 13.364 C 51.926 13.413 51.947 13.456 51.991 13.49 C 52.002 13.512 52.029 13.54 52.04 13.561 C 52.089 13.632 52.121 13.697 52.165 13.783 L 52.548 14.522 C 52.806 15.024 52.869 15.587 52.725 16.109 C 52.696 16.186 52.689 16.253 52.661 16.33 C 52.436 16.874 52.013 17.344 51.388 17.598 L 51.388 17.598 Z " fill="rgb(41,213,226)"/><path d=" M 51.388 17.598 L 44.087 20.615 C 44.014 20.657 43.931 20.678 43.847 20.699 C 43.825 20.708 43.802 20.717 43.764 20.72 C 43.702 20.732 43.658 20.75 43.596 20.762 C 43.558 20.765 43.535 20.774 43.496 20.777 C 43.458 20.779 43.396 20.791 43.357 20.794 C 43.319 20.797 43.28 20.8 43.257 20.809 C 43.218 20.812 43.163 20.808 43.124 20.811 C 43.085 20.814 43.052 20.801 43.013 20.804 C 42.974 20.807 42.919 20.804 42.88 20.807 C 42.841 20.809 42.808 20.797 42.769 20.8 C 42.73 20.803 42.681 20.784 42.642 20.787 C 42.609 20.774 42.57 20.777 42.537 20.765 C 42.503 20.752 42.448 20.749 42.415 20.736 L 41.984 20.574 C 41.951 20.561 41.907 20.527 41.874 20.515 C 41.841 20.502 41.814 20.475 41.781 20.462 C 41.748 20.45 41.704 20.416 41.676 20.388 C 41.649 20.36 41.616 20.348 41.589 20.32 C 41.561 20.292 41.517 20.258 41.484 20.245 C 41.457 20.218 41.424 20.205 41.396 20.177 C 41.369 20.15 41.325 20.116 41.298 20.088 L 41.216 20.004 C 41.188 19.977 41.15 19.927 41.123 19.9 C 41.096 19.872 41.085 19.85 41.057 19.822 C 41.036 19.779 40.992 19.745 40.97 19.702 C 40.96 19.681 40.932 19.653 40.921 19.631 C 40.889 19.567 40.84 19.496 40.808 19.431 C 40.808 19.431 40.791 19.425 40.797 19.41 L 40.414 18.671 C 39.809 17.477 40.321 16.098 41.557 15.588 L 48.858 12.572 C 48.931 12.529 49.014 12.508 49.098 12.487 C 49.12 12.478 49.159 12.475 49.181 12.466 C 49.226 12.448 49.287 12.436 49.349 12.424 C 49.387 12.421 49.41 12.412 49.449 12.41 C 49.488 12.407 49.549 12.395 49.588 12.392 C 49.626 12.389 49.665 12.386 49.688 12.377 C 49.727 12.374 49.782 12.378 49.821 12.375 C 49.86 12.372 49.893 12.385 49.932 12.382 C 49.971 12.379 50.026 12.382 50.065 12.38 C 50.104 12.377 50.137 12.389 50.176 12.386 C 50.215 12.384 50.264 12.402 50.303 12.4 C 50.336 12.412 50.375 12.409 50.408 12.422 C 50.442 12.434 50.497 12.438 50.53 12.45 L 50.961 12.612 C 50.994 12.625 51.038 12.659 51.071 12.671 C 51.104 12.684 51.131 12.712 51.164 12.724 C 51.197 12.737 51.241 12.771 51.269 12.798 C 51.296 12.826 51.329 12.839 51.356 12.866 C 51.384 12.894 51.428 12.928 51.461 12.941 C 51.488 12.968 51.521 12.981 51.549 13.009 C 51.576 13.037 51.62 13.071 51.647 13.098 L 51.729 13.182 C 51.757 13.209 51.795 13.259 51.822 13.287 C 51.849 13.314 51.86 13.336 51.888 13.364 C 51.926 13.413 51.947 13.456 51.991 13.49 C 52.002 13.512 52.029 13.54 52.04 13.561 C 52.089 13.632 52.121 13.697 52.165 13.783 L 52.548 14.522 C 52.806 15.024 52.869 15.587 52.725 16.109 C 52.696 16.186 52.689 16.253 52.661 16.33 C 52.436 16.874 52.013 17.344 51.388 17.598 L 51.388 17.598 Z " fill="rgb(41,213,226)"/><g style="isolation: isolate;"><path d=" M 51.388 17.598 L 44.087 20.615 C 44.014 20.657 43.931 20.678 43.847 20.699 C 43.825 20.708 43.802 20.717 43.764 20.72 C 43.702 20.732 43.658 20.75 43.596 20.762 C 43.558 20.765 43.535 20.774 43.496 20.777 C 43.458 20.779 43.396 20.791 43.357 20.794 C 43.319 20.797 43.28 20.8 43.257 20.809 C 43.218 20.812 43.163 20.808 43.124 20.811 C 43.085 20.814 43.052 20.801 43.013 20.804 C 42.974 20.807 42.919 20.804 42.88 20.807 C 42.841 20.809 42.808 20.797 42.769 20.8 C 42.73 20.803 42.681 20.784 42.642 20.787 C 42.609 20.774 42.57 20.777 42.537 20.765 C 42.503 20.752 42.448 20.749 42.415 20.736 L 41.984 20.574 C 41.951 20.561 41.907 20.527 41.874 20.515 C 41.841 20.502 41.814 20.475 41.781 20.462 C 41.748 20.45 41.704 20.416 41.676 20.388 C 41.649 20.36 41.616 20.348 41.589 20.32 C 41.561 20.292 41.517 20.258 41.484 20.245 C 41.457 20.218 41.424 20.205 41.396 20.177 C 41.369 20.15 41.325 20.116 41.298 20.088 L 41.216 20.004 C 41.188 19.977 41.15 19.927 41.123 19.9 C 41.096 19.872 41.085 19.85 41.057 19.822 C 41.036 19.779 40.992 19.745 40.97 19.702 C 40.96 19.681 40.932 19.653 40.921 19.631 C 40.889 19.567 40.84 19.496 40.808 19.431 C 40.808 19.431 40.791 19.425 40.797 19.41 L 40.414 18.671 C 39.809 17.477 40.321 16.098 41.557 15.588 L 48.858 12.572 C 48.931 12.529 49.014 12.508 49.098 12.487 C 49.12 12.478 49.159 12.475 49.181 12.466 C 49.226 12.448 49.287 12.436 49.349 12.424 C 49.387 12.421 49.41 12.412 49.449 12.41 C 49.488 12.407 49.549 12.395 49.588 12.392 C 49.626 12.389 49.665 12.386 49.688 12.377 C 49.727 12.374 49.782 12.378 49.821 12.375 C 49.86 12.372 49.893 12.385 49.932 12.382 C 49.971 12.379 50.026 12.382 50.065 12.38 C 50.104 12.377 50.137 12.389 50.176 12.386 C 50.215 12.384 50.264 12.402 50.303 12.4 C 50.336 12.412 50.375 12.409 50.408 12.422 C 50.442 12.434 50.497 12.438 50.53 12.45 L 50.961 12.612 C 50.994 12.625 51.038 12.659 51.071 12.671 C 51.104 12.684 51.131 12.712 51.164 12.724 C 51.197 12.737 51.241 12.771 51.269 12.798 C 51.296 12.826 51.329 12.839 51.356 12.866 C 51.384 12.894 51.428 12.928 51.461 12.941 C 51.488 12.968 51.521 12.981 51.549 13.009 C 51.576 13.037 51.62 13.071 51.647 13.098 L 51.729 13.182 C 51.757 13.209 51.795 13.259 51.822 13.287 C 51.849 13.314 51.86 13.336 51.888 13.364 C 51.926 13.413 51.947 13.456 51.991 13.49 C 52.002 13.512 52.029 13.54 52.04 13.561 C 52.089 13.632 52.121 13.697 52.165 13.783 L 52.548 14.522 C 52.806 15.024 52.869 15.587 52.725 16.109 C 52.696 16.186 52.689 16.253 52.661 16.33 C 52.436 16.874 52.013 17.344 51.388 17.598 L 51.388 17.598 Z " fill="none" vector-effect="non-scaling-stroke" stroke-width="0.18" stroke="rgb(41,213,226)" stroke-linejoin="miter" stroke-linecap="butt" stroke-miterlimit="4"/></g><path d=" M 48.887 18.259 L 42.503 21.116 C 42.44 21.156 42.367 21.177 42.294 21.197 C 42.275 21.206 42.255 21.214 42.221 21.217 C 42.168 21.229 42.129 21.246 42.076 21.258 C 42.042 21.261 42.022 21.27 41.989 21.273 C 41.955 21.276 41.902 21.288 41.868 21.291 C 41.834 21.295 41.8 21.298 41.781 21.307 C 41.747 21.31 41.699 21.308 41.665 21.311 C 41.631 21.314 41.603 21.303 41.569 21.307 C 41.535 21.31 41.487 21.308 41.454 21.311 C 41.42 21.314 41.391 21.303 41.358 21.307 C 41.324 21.31 41.281 21.294 41.247 21.297 C 41.219 21.286 41.185 21.289 41.157 21.279 C 41.128 21.268 41.08 21.266 41.052 21.255 L 40.681 21.115 C 40.652 21.105 40.615 21.074 40.586 21.064 C 40.558 21.053 40.535 21.028 40.506 21.018 C 40.478 21.007 40.44 20.977 40.417 20.952 C 40.394 20.927 40.365 20.917 40.342 20.892 C 40.319 20.867 40.281 20.837 40.253 20.826 C 40.23 20.802 40.201 20.791 40.178 20.766 C 40.155 20.741 40.117 20.711 40.094 20.687 L 40.024 20.613 C 40.001 20.588 39.969 20.544 39.945 20.519 C 39.922 20.494 39.913 20.475 39.89 20.45 C 39.872 20.412 39.834 20.382 39.816 20.343 C 39.807 20.324 39.784 20.299 39.775 20.279 C 39.748 20.221 39.707 20.158 39.68 20.1 C 39.68 20.1 39.666 20.095 39.671 20.081 L 39.351 19.418 C 38.848 18.347 39.315 17.088 40.395 16.606 L 46.778 13.748 C 46.842 13.709 46.915 13.688 46.987 13.668 C 47.007 13.659 47.041 13.656 47.06 13.647 C 47.099 13.63 47.153 13.618 47.206 13.606 C 47.24 13.603 47.259 13.595 47.293 13.591 C 47.327 13.588 47.38 13.576 47.414 13.573 C 47.447 13.57 47.481 13.567 47.501 13.558 C 47.534 13.555 47.583 13.557 47.616 13.554 C 47.65 13.551 47.679 13.561 47.712 13.558 C 47.746 13.555 47.794 13.557 47.828 13.554 C 47.862 13.551 47.89 13.561 47.924 13.558 C 47.958 13.555 48 13.571 48.034 13.568 C 48.063 13.579 48.096 13.575 48.125 13.586 C 48.153 13.597 48.201 13.599 48.23 13.61 L 48.601 13.749 C 48.629 13.76 48.667 13.79 48.695 13.801 C 48.724 13.812 48.747 13.836 48.775 13.847 C 48.804 13.858 48.841 13.888 48.865 13.913 C 48.888 13.937 48.916 13.948 48.939 13.973 C 48.963 13.998 49 14.028 49.029 14.038 C 49.052 14.063 49.08 14.074 49.104 14.099 C 49.127 14.123 49.164 14.153 49.188 14.178 L 49.257 14.252 C 49.281 14.277 49.313 14.321 49.336 14.346 C 49.359 14.37 49.368 14.39 49.392 14.414 C 49.424 14.458 49.442 14.497 49.479 14.527 C 49.488 14.547 49.512 14.571 49.52 14.591 C 49.562 14.654 49.589 14.712 49.625 14.789 L 49.944 15.452 C 50.16 15.902 50.204 16.412 50.071 16.887 C 50.045 16.957 50.038 17.018 50.011 17.088 C 49.808 17.586 49.433 18.018 48.887 18.259 L 48.887 18.259 Z " fill="rgb(41,213,226)"/><path d=" M 48.887 18.259 L 42.503 21.116 C 42.44 21.156 42.367 21.177 42.294 21.197 C 42.275 21.206 42.255 21.214 42.221 21.217 C 42.168 21.229 42.129 21.246 42.076 21.258 C 42.042 21.261 42.022 21.27 41.989 21.273 C 41.955 21.276 41.902 21.288 41.868 21.291 C 41.834 21.295 41.8 21.298 41.781 21.307 C 41.747 21.31 41.699 21.308 41.665 21.311 C 41.631 21.314 41.603 21.303 41.569 21.307 C 41.535 21.31 41.487 21.308 41.454 21.311 C 41.42 21.314 41.391 21.303 41.358 21.307 C 41.324 21.31 41.281 21.294 41.247 21.297 C 41.219 21.286 41.185 21.289 41.157 21.279 C 41.128 21.268 41.08 21.266 41.052 21.255 L 40.681 21.115 C 40.652 21.105 40.615 21.074 40.586 21.064 C 40.558 21.053 40.535 21.028 40.506 21.018 C 40.478 21.007 40.44 20.977 40.417 20.952 C 40.394 20.927 40.365 20.917 40.342 20.892 C 40.319 20.867 40.281 20.837 40.253 20.826 C 40.23 20.802 40.201 20.791 40.178 20.766 C 40.155 20.741 40.117 20.711 40.094 20.687 L 40.024 20.613 C 40.001 20.588 39.969 20.544 39.945 20.519 C 39.922 20.494 39.913 20.475 39.89 20.45 C 39.872 20.412 39.834 20.382 39.816 20.343 C 39.807 20.324 39.784 20.299 39.775 20.279 C 39.748 20.221 39.707 20.158 39.68 20.1 C 39.68 20.1 39.666 20.095 39.671 20.081 L 39.351 19.418 C 38.848 18.347 39.315 17.088 40.395 16.606 L 46.778 13.748 C 46.842 13.709 46.915 13.688 46.987 13.668 C 47.007 13.659 47.041 13.656 47.06 13.647 C 47.099 13.63 47.153 13.618 47.206 13.606 C 47.24 13.603 47.259 13.595 47.293 13.591 C 47.327 13.588 47.38 13.576 47.414 13.573 C 47.447 13.57 47.481 13.567 47.501 13.558 C 47.534 13.555 47.583 13.557 47.616 13.554 C 47.65 13.551 47.679 13.561 47.712 13.558 C 47.746 13.555 47.794 13.557 47.828 13.554 C 47.862 13.551 47.89 13.561 47.924 13.558 C 47.958 13.555 48 13.571 48.034 13.568 C 48.063 13.579 48.096 13.575 48.125 13.586 C 48.153 13.597 48.201 13.599 48.23 13.61 L 48.601 13.749 C 48.629 13.76 48.667 13.79 48.695 13.801 C 48.724 13.812 48.747 13.836 48.775 13.847 C 48.804 13.858 48.841 13.888 48.865 13.913 C 48.888 13.937 48.916 13.948 48.939 13.973 C 48.963 13.998 49 14.028 49.029 14.038 C 49.052 14.063 49.08 14.074 49.104 14.099 C 49.127 14.123 49.164 14.153 49.188 14.178 L 49.257 14.252 C 49.281 14.277 49.313 14.321 49.336 14.346 C 49.359 14.37 49.368 14.39 49.392 14.414 C 49.424 14.458 49.442 14.497 49.479 14.527 C 49.488 14.547 49.512 14.571 49.52 14.591 C 49.562 14.654 49.589 14.712 49.625 14.789 L 49.944 15.452 C 50.16 15.902 50.204 16.412 50.071 16.887 C 50.045 16.957 50.038 17.018 50.011 17.088 C 49.808 17.586 49.433 18.018 48.887 18.259 L 48.887 18.259 Z " fill="rgb(18,190,202)"/><g style="isolation: isolate;"><path d=" M 48.887 18.259 L 42.503 21.116 C 42.44 21.156 42.367 21.177 42.294 21.197 C 42.275 21.206 42.255 21.214 42.221 21.217 C 42.168 21.229 42.129 21.246 42.076 21.258 C 42.042 21.261 42.022 21.27 41.989 21.273 C 41.955 21.276 41.902 21.288 41.868 21.291 C 41.834 21.295 41.8 21.298 41.781 21.307 C 41.747 21.31 41.699 21.308 41.665 21.311 C 41.631 21.314 41.603 21.303 41.569 21.307 C 41.535 21.31 41.487 21.308 41.454 21.311 C 41.42 21.314 41.391 21.303 41.358 21.307 C 41.324 21.31 41.281 21.294 41.247 21.297 C 41.219 21.286 41.185 21.289 41.157 21.279 C 41.128 21.268 41.08 21.266 41.052 21.255 L 40.681 21.115 C 40.652 21.105 40.615 21.074 40.586 21.064 C 40.558 21.053 40.535 21.028 40.506 21.018 C 40.478 21.007 40.44 20.977 40.417 20.952 C 40.394 20.927 40.365 20.917 40.342 20.892 C 40.319 20.867 40.281 20.837 40.253 20.826 C 40.23 20.802 40.201 20.791 40.178 20.766 C 40.155 20.741 40.117 20.711 40.094 20.687 L 40.024 20.613 C 40.001 20.588 39.969 20.544 39.945 20.519 C 39.922 20.494 39.913 20.475 39.89 20.45 C 39.872 20.412 39.834 20.382 39.816 20.343 C 39.807 20.324 39.784 20.299 39.775 20.279 C 39.748 20.221 39.707 20.158 39.68 20.1 C 39.68 20.1 39.666 20.095 39.671 20.081 L 39.351 19.418 C 38.848 18.347 39.315 17.088 40.395 16.606 L 46.778 13.748 C 46.842 13.709 46.915 13.688 46.987 13.668 C 47.007 13.659 47.041 13.656 47.06 13.647 C 47.099 13.63 47.153 13.618 47.206 13.606 C 47.24 13.603 47.259 13.595 47.293 13.591 C 47.327 13.588 47.38 13.576 47.414 13.573 C 47.447 13.57 47.481 13.567 47.501 13.558 C 47.534 13.555 47.583 13.557 47.616 13.554 C 47.65 13.551 47.679 13.561 47.712 13.558 C 47.746 13.555 47.794 13.557 47.828 13.554 C 47.862 13.551 47.89 13.561 47.924 13.558 C 47.958 13.555 48 13.571 48.034 13.568 C 48.063 13.579 48.096 13.575 48.125 13.586 C 48.153 13.597 48.201 13.599 48.23 13.61 L 48.601 13.749 C 48.629 13.76 48.667 13.79 48.695 13.801 C 48.724 13.812 48.747 13.836 48.775 13.847 C 48.804 13.858 48.841 13.888 48.865 13.913 C 48.888 13.937 48.916 13.948 48.939 13.973 C 48.963 13.998 49 14.028 49.029 14.038 C 49.052 14.063 49.08 14.074 49.104 14.099 C 49.127 14.123 49.164 14.153 49.188 14.178 L 49.257 14.252 C 49.281 14.277 49.313 14.321 49.336 14.346 C 49.359 14.37 49.368 14.39 49.392 14.414 C 49.424 14.458 49.442 14.497 49.479 14.527 C 49.488 14.547 49.512 14.571 49.52 14.591 C 49.562 14.654 49.589 14.712 49.625 14.789 L 49.944 15.452 C 50.16 15.902 50.204 16.412 50.071 16.887 C 50.045 16.957 50.038 17.018 50.011 17.088 C 49.808 17.586 49.433 18.018 48.887 18.259 L 48.887 18.259 Z " fill="none" vector-effect="non-scaling-stroke" stroke-width="0.18" stroke="rgb(41,213,226)" stroke-linejoin="miter" stroke-linecap="butt" stroke-miterlimit="4"/></g></g><path d=" M 39.198 25.037 C 36.437 26.138 33.752 27.419 31.16 28.88 C 28.46 30.38 25.91 32.11 23.52 34.06 C 22.5 34.89 21.54 35.78 20.63 36.73 C 19.84 37.54 19.12 38.42 18.47 39.34 C 17.93 40.11 17.48 40.93 17.14 41.8 C 16.86 42.49 16.71 43.23 16.69 43.97 C 16.69 44.74 16.91 45.49 17.34 46.13 C 17.88 46.88 18.61 47.48 19.45 47.88 C 20 48.15 20.57 48.38 21.16 48.56 C 21.88 48.78 22.6 48.96 23.33 49.08 C 25.25 49.4 27.19 49.54 29.13 49.52 C 31.53 49.51 33.92 49.37 36.3 49.11 C 39.33 48.78 42.33 48.34 45.32 47.79 C 49.01 47.12 52.67 46.34 56.31 45.46 C 59.305 44.74 62.296 43.974 65.272 43.163 Q 0.968 52.905 39.198 25.037 Z " fill-rule="evenodd" fill="rgb(131,38,239)" vector-effect="non-scaling-stroke" stroke-width="1" stroke="rgb(131,38,239)" stroke-linejoin="miter" stroke-linecap="square" stroke-miterlimit="3"/><ellipse vector-effect="non-scaling-stroke" cx="71.875" cy="18.1875" rx="3" ry="3.312500000000001" fill="rgb(131,38,239)"/><circle vector-effect="non-scaling-stroke" cx="62.4999999999999" cy="23.12499999999985" r="2.625" fill="rgb(131,38,239)"/><ellipse vector-effect="non-scaling-stroke" cx="67.93749999999977" cy="33.140625" rx="3.1875000000000284" ry="3.234374999999993" fill="rgb(131,38,239)"/></g></svg>